<mxfile host="app.diagrams.net" modified="2023-07-24T03:42:27.763Z" agent="Mozilla/5.0 (Macintosh; Intel Mac OS X 10_15_7) AppleWebKit/537.36 (KHTML, like Gecko) Chrome/115.0.0.0 Safari/537.36" etag="bDrRPrW0H2ZipcTgHowJ" version="21.6.3" type="github">
  <diagram name="第 1 页" id="mZXcP0QFzUB1vkL0VNvU">
    <mxGraphModel dx="1434" dy="669" grid="0" gridSize="10" guides="1" tooltips="1" connect="1" arrows="1" fold="1" page="1" pageScale="1" pageWidth="827" pageHeight="1169" math="0" shadow="0">
      <root>
        <mxCell id="0" />
        <mxCell id="1" parent="0" />
        <mxCell id="87Ft91bWCw8aiicAcbZZ-1" value="运营后台" style="rounded=0;whiteSpace=wrap;html=1;" vertex="1" parent="1">
          <mxGeometry x="49" y="74" width="120" height="70" as="geometry" />
        </mxCell>
        <mxCell id="87Ft91bWCw8aiicAcbZZ-2" value="后端" style="rounded=0;whiteSpace=wrap;html=1;verticalAlign=top;" vertex="1" parent="1">
          <mxGeometry x="49" y="221" width="120" height="84" as="geometry" />
        </mxCell>
        <mxCell id="87Ft91bWCw8aiicAcbZZ-3" value="C端" style="rounded=0;whiteSpace=wrap;html=1;" vertex="1" parent="1">
          <mxGeometry x="285" y="233" width="120" height="60" as="geometry" />
        </mxCell>
        <mxCell id="87Ft91bWCw8aiicAcbZZ-5" value="公式 Latex&amp;nbsp;" style="text;html=1;strokeColor=none;fillColor=none;align=center;verticalAlign=middle;whiteSpace=wrap;rounded=0;" vertex="1" parent="1">
          <mxGeometry x="30" y="163" width="60" height="30" as="geometry" />
        </mxCell>
        <mxCell id="87Ft91bWCw8aiicAcbZZ-6" value="" style="endArrow=classic;html=1;rounded=0;exitX=0.25;exitY=1;exitDx=0;exitDy=0;entryX=0.25;entryY=0;entryDx=0;entryDy=0;" edge="1" parent="1" source="87Ft91bWCw8aiicAcbZZ-1" target="87Ft91bWCw8aiicAcbZZ-2">
          <mxGeometry width="50" height="50" relative="1" as="geometry">
            <mxPoint x="69" y="181" as="sourcePoint" />
            <mxPoint x="119" y="131" as="targetPoint" />
          </mxGeometry>
        </mxCell>
        <mxCell id="87Ft91bWCw8aiicAcbZZ-7" value="图片url" style="text;html=1;strokeColor=none;fillColor=none;align=center;verticalAlign=middle;whiteSpace=wrap;rounded=0;" vertex="1" parent="1">
          <mxGeometry x="134" y="166" width="60" height="30" as="geometry" />
        </mxCell>
        <mxCell id="87Ft91bWCw8aiicAcbZZ-8" value="" style="endArrow=classic;html=1;rounded=0;exitX=0.75;exitY=0;exitDx=0;exitDy=0;entryX=0.75;entryY=1;entryDx=0;entryDy=0;" edge="1" parent="1" source="87Ft91bWCw8aiicAcbZZ-2" target="87Ft91bWCw8aiicAcbZZ-1">
          <mxGeometry width="50" height="50" relative="1" as="geometry">
            <mxPoint x="-101" y="261" as="sourcePoint" />
            <mxPoint x="-51" y="211" as="targetPoint" />
          </mxGeometry>
        </mxCell>
        <mxCell id="87Ft91bWCw8aiicAcbZZ-9" value="" style="endArrow=classic;html=1;rounded=0;exitX=1;exitY=0.5;exitDx=0;exitDy=0;entryX=0;entryY=0.5;entryDx=0;entryDy=0;" edge="1" parent="1" source="87Ft91bWCw8aiicAcbZZ-2" target="87Ft91bWCw8aiicAcbZZ-3">
          <mxGeometry width="50" height="50" relative="1" as="geometry">
            <mxPoint x="239" y="261" as="sourcePoint" />
            <mxPoint x="289" y="211" as="targetPoint" />
          </mxGeometry>
        </mxCell>
        <mxCell id="87Ft91bWCw8aiicAcbZZ-10" value="Latex 公式图片" style="text;html=1;strokeColor=none;fillColor=none;align=center;verticalAlign=middle;whiteSpace=wrap;rounded=0;" vertex="1" parent="1">
          <mxGeometry x="16" y="321" width="60" height="30" as="geometry" />
        </mxCell>
        <mxCell id="87Ft91bWCw8aiicAcbZZ-11" value="图片服务器" style="rounded=0;whiteSpace=wrap;html=1;" vertex="1" parent="1">
          <mxGeometry x="49" y="366" width="120" height="60" as="geometry" />
        </mxCell>
        <mxCell id="87Ft91bWCw8aiicAcbZZ-12" value="" style="endArrow=classic;html=1;rounded=0;exitX=0.25;exitY=1;exitDx=0;exitDy=0;entryX=0.25;entryY=0;entryDx=0;entryDy=0;" edge="1" parent="1" source="87Ft91bWCw8aiicAcbZZ-2" target="87Ft91bWCw8aiicAcbZZ-11">
          <mxGeometry width="50" height="50" relative="1" as="geometry">
            <mxPoint x="186" y="365" as="sourcePoint" />
            <mxPoint x="236" y="315" as="targetPoint" />
          </mxGeometry>
        </mxCell>
        <mxCell id="87Ft91bWCw8aiicAcbZZ-13" value="" style="endArrow=classic;html=1;rounded=0;exitX=0.75;exitY=0;exitDx=0;exitDy=0;entryX=0.75;entryY=1;entryDx=0;entryDy=0;" edge="1" parent="1" source="87Ft91bWCw8aiicAcbZZ-11" target="87Ft91bWCw8aiicAcbZZ-2">
          <mxGeometry width="50" height="50" relative="1" as="geometry">
            <mxPoint x="222" y="360" as="sourcePoint" />
            <mxPoint x="272" y="310" as="targetPoint" />
          </mxGeometry>
        </mxCell>
        <mxCell id="87Ft91bWCw8aiicAcbZZ-14" value="图片url" style="text;html=1;strokeColor=none;fillColor=none;align=center;verticalAlign=middle;whiteSpace=wrap;rounded=0;" vertex="1" parent="1">
          <mxGeometry x="130" y="324" width="60" height="30" as="geometry" />
        </mxCell>
        <mxCell id="87Ft91bWCw8aiicAcbZZ-15" value="图片url" style="text;html=1;strokeColor=none;fillColor=none;align=center;verticalAlign=middle;whiteSpace=wrap;rounded=0;" vertex="1" parent="1">
          <mxGeometry x="192" y="233" width="60" height="30" as="geometry" />
        </mxCell>
        <mxCell id="87Ft91bWCw8aiicAcbZZ-30" value="现状" style="text;html=1;strokeColor=none;fillColor=none;align=center;verticalAlign=middle;whiteSpace=wrap;rounded=0;fontStyle=1;fontSize=21;" vertex="1" parent="1">
          <mxGeometry x="79" y="7" width="60" height="30" as="geometry" />
        </mxCell>
        <mxCell id="87Ft91bWCw8aiicAcbZZ-31" value="方案二" style="text;html=1;strokeColor=none;fillColor=none;align=center;verticalAlign=middle;whiteSpace=wrap;rounded=0;fontStyle=1;fontSize=21;" vertex="1" parent="1">
          <mxGeometry x="486.5" y="505" width="83" height="30" as="geometry" />
        </mxCell>
        <mxCell id="87Ft91bWCw8aiicAcbZZ-38" value="Latex 公式" style="text;html=1;strokeColor=none;fillColor=none;align=center;verticalAlign=middle;whiteSpace=wrap;rounded=0;" vertex="1" parent="1">
          <mxGeometry x="49" y="268" width="46" height="30" as="geometry" />
        </mxCell>
        <mxCell id="87Ft91bWCw8aiicAcbZZ-39" value="Latex 公式图片" style="text;html=1;strokeColor=none;fillColor=none;align=center;verticalAlign=middle;whiteSpace=wrap;rounded=0;" vertex="1" parent="1">
          <mxGeometry x="117" y="268" width="52" height="30" as="geometry" />
        </mxCell>
        <mxCell id="87Ft91bWCw8aiicAcbZZ-40" value="" style="endArrow=classic;html=1;rounded=0;exitX=1;exitY=0.5;exitDx=0;exitDy=0;" edge="1" parent="1" source="87Ft91bWCw8aiicAcbZZ-38" target="87Ft91bWCw8aiicAcbZZ-39">
          <mxGeometry width="50" height="50" relative="1" as="geometry">
            <mxPoint x="18" y="465" as="sourcePoint" />
            <mxPoint x="68" y="415" as="targetPoint" />
          </mxGeometry>
        </mxCell>
        <mxCell id="87Ft91bWCw8aiicAcbZZ-43" value="后端" style="rounded=0;whiteSpace=wrap;html=1;" vertex="1" parent="1">
          <mxGeometry x="477" y="567" width="120" height="64" as="geometry" />
        </mxCell>
        <mxCell id="87Ft91bWCw8aiicAcbZZ-44" value="运营后台" style="rounded=0;whiteSpace=wrap;html=1;verticalAlign=top;" vertex="1" parent="1">
          <mxGeometry x="477" y="708" width="120" height="84" as="geometry" />
        </mxCell>
        <mxCell id="87Ft91bWCw8aiicAcbZZ-45" value="C端" style="rounded=0;whiteSpace=wrap;html=1;" vertex="1" parent="1">
          <mxGeometry x="686" y="569" width="120" height="60" as="geometry" />
        </mxCell>
        <mxCell id="87Ft91bWCw8aiicAcbZZ-46" value="图片url" style="text;html=1;strokeColor=none;fillColor=none;align=center;verticalAlign=middle;whiteSpace=wrap;rounded=0;" vertex="1" parent="1">
          <mxGeometry x="449" y="653" width="60" height="30" as="geometry" />
        </mxCell>
        <mxCell id="87Ft91bWCw8aiicAcbZZ-47" value="" style="endArrow=classic;html=1;rounded=0;exitX=0.25;exitY=1;exitDx=0;exitDy=0;entryX=0.25;entryY=0;entryDx=0;entryDy=0;" edge="1" parent="1" source="87Ft91bWCw8aiicAcbZZ-43" target="87Ft91bWCw8aiicAcbZZ-44">
          <mxGeometry width="50" height="50" relative="1" as="geometry">
            <mxPoint x="497" y="668" as="sourcePoint" />
            <mxPoint x="547" y="618" as="targetPoint" />
          </mxGeometry>
        </mxCell>
        <mxCell id="87Ft91bWCw8aiicAcbZZ-48" value="图片url" style="text;html=1;strokeColor=none;fillColor=none;align=center;verticalAlign=middle;whiteSpace=wrap;rounded=0;" vertex="1" parent="1">
          <mxGeometry x="562" y="653" width="60" height="30" as="geometry" />
        </mxCell>
        <mxCell id="87Ft91bWCw8aiicAcbZZ-49" value="" style="endArrow=classic;html=1;rounded=0;exitX=0.75;exitY=0;exitDx=0;exitDy=0;entryX=0.75;entryY=1;entryDx=0;entryDy=0;" edge="1" parent="1" source="87Ft91bWCw8aiicAcbZZ-44" target="87Ft91bWCw8aiicAcbZZ-43">
          <mxGeometry width="50" height="50" relative="1" as="geometry">
            <mxPoint x="327" y="748" as="sourcePoint" />
            <mxPoint x="377" y="698" as="targetPoint" />
          </mxGeometry>
        </mxCell>
        <mxCell id="87Ft91bWCw8aiicAcbZZ-50" value="" style="endArrow=classic;html=1;rounded=0;exitX=1;exitY=0.5;exitDx=0;exitDy=0;entryX=0;entryY=0.5;entryDx=0;entryDy=0;" edge="1" parent="1" source="87Ft91bWCw8aiicAcbZZ-43" target="87Ft91bWCw8aiicAcbZZ-45">
          <mxGeometry width="50" height="50" relative="1" as="geometry">
            <mxPoint x="667" y="748" as="sourcePoint" />
            <mxPoint x="717" y="698" as="targetPoint" />
          </mxGeometry>
        </mxCell>
        <mxCell id="87Ft91bWCw8aiicAcbZZ-51" value="Latex 公式图片" style="text;html=1;strokeColor=none;fillColor=none;align=center;verticalAlign=middle;whiteSpace=wrap;rounded=0;" vertex="1" parent="1">
          <mxGeometry x="444" y="808" width="60" height="30" as="geometry" />
        </mxCell>
        <mxCell id="87Ft91bWCw8aiicAcbZZ-52" value="图片服务器" style="rounded=0;whiteSpace=wrap;html=1;" vertex="1" parent="1">
          <mxGeometry x="477" y="853" width="120" height="60" as="geometry" />
        </mxCell>
        <mxCell id="87Ft91bWCw8aiicAcbZZ-53" value="" style="endArrow=classic;html=1;rounded=0;exitX=0.25;exitY=1;exitDx=0;exitDy=0;entryX=0.25;entryY=0;entryDx=0;entryDy=0;" edge="1" parent="1" source="87Ft91bWCw8aiicAcbZZ-44" target="87Ft91bWCw8aiicAcbZZ-52">
          <mxGeometry width="50" height="50" relative="1" as="geometry">
            <mxPoint x="614" y="852" as="sourcePoint" />
            <mxPoint x="664" y="802" as="targetPoint" />
          </mxGeometry>
        </mxCell>
        <mxCell id="87Ft91bWCw8aiicAcbZZ-54" value="" style="endArrow=classic;html=1;rounded=0;exitX=0.75;exitY=0;exitDx=0;exitDy=0;entryX=0.75;entryY=1;entryDx=0;entryDy=0;" edge="1" parent="1" source="87Ft91bWCw8aiicAcbZZ-52" target="87Ft91bWCw8aiicAcbZZ-44">
          <mxGeometry width="50" height="50" relative="1" as="geometry">
            <mxPoint x="650" y="847" as="sourcePoint" />
            <mxPoint x="700" y="797" as="targetPoint" />
          </mxGeometry>
        </mxCell>
        <mxCell id="87Ft91bWCw8aiicAcbZZ-55" value="图片url" style="text;html=1;strokeColor=none;fillColor=none;align=center;verticalAlign=middle;whiteSpace=wrap;rounded=0;" vertex="1" parent="1">
          <mxGeometry x="558" y="811" width="60" height="30" as="geometry" />
        </mxCell>
        <mxCell id="87Ft91bWCw8aiicAcbZZ-56" value="图片url" style="text;html=1;strokeColor=none;fillColor=none;align=center;verticalAlign=middle;whiteSpace=wrap;rounded=0;" vertex="1" parent="1">
          <mxGeometry x="607" y="572" width="60" height="30" as="geometry" />
        </mxCell>
        <mxCell id="87Ft91bWCw8aiicAcbZZ-57" value="Latex 公式" style="text;html=1;strokeColor=none;fillColor=none;align=center;verticalAlign=middle;whiteSpace=wrap;rounded=0;" vertex="1" parent="1">
          <mxGeometry x="477" y="755" width="46" height="30" as="geometry" />
        </mxCell>
        <mxCell id="87Ft91bWCw8aiicAcbZZ-58" value="Latex 公式图片" style="text;html=1;strokeColor=none;fillColor=none;align=center;verticalAlign=middle;whiteSpace=wrap;rounded=0;" vertex="1" parent="1">
          <mxGeometry x="545" y="755" width="52" height="30" as="geometry" />
        </mxCell>
        <mxCell id="87Ft91bWCw8aiicAcbZZ-59" value="" style="endArrow=classic;html=1;rounded=0;exitX=1;exitY=0.5;exitDx=0;exitDy=0;" edge="1" parent="1" source="87Ft91bWCw8aiicAcbZZ-57" target="87Ft91bWCw8aiicAcbZZ-58">
          <mxGeometry width="50" height="50" relative="1" as="geometry">
            <mxPoint x="446" y="952" as="sourcePoint" />
            <mxPoint x="496" y="902" as="targetPoint" />
          </mxGeometry>
        </mxCell>
        <mxCell id="87Ft91bWCw8aiicAcbZZ-60" value="方案一" style="text;html=1;strokeColor=none;fillColor=none;align=center;verticalAlign=middle;whiteSpace=wrap;rounded=0;fontStyle=1;fontSize=21;" vertex="1" parent="1">
          <mxGeometry x="79.5" y="510" width="83" height="30" as="geometry" />
        </mxCell>
        <mxCell id="87Ft91bWCw8aiicAcbZZ-78" value="运营后台" style="rounded=0;whiteSpace=wrap;html=1;verticalAlign=top;" vertex="1" parent="1">
          <mxGeometry x="58" y="558" width="120" height="79" as="geometry" />
        </mxCell>
        <mxCell id="87Ft91bWCw8aiicAcbZZ-79" value="后端" style="rounded=0;whiteSpace=wrap;html=1;verticalAlign=middle;" vertex="1" parent="1">
          <mxGeometry x="58" y="714" width="120" height="64" as="geometry" />
        </mxCell>
        <mxCell id="87Ft91bWCw8aiicAcbZZ-80" value="C端" style="rounded=0;whiteSpace=wrap;html=1;verticalAlign=top;" vertex="1" parent="1">
          <mxGeometry x="268" y="704" width="120" height="84" as="geometry" />
        </mxCell>
        <mxCell id="87Ft91bWCw8aiicAcbZZ-81" value="公式 Latex&amp;nbsp;" style="text;html=1;strokeColor=none;fillColor=none;align=center;verticalAlign=middle;whiteSpace=wrap;rounded=0;" vertex="1" parent="1">
          <mxGeometry x="39" y="656" width="60" height="30" as="geometry" />
        </mxCell>
        <mxCell id="87Ft91bWCw8aiicAcbZZ-82" value="" style="endArrow=classic;html=1;rounded=0;exitX=0.25;exitY=1;exitDx=0;exitDy=0;entryX=0.25;entryY=0;entryDx=0;entryDy=0;" edge="1" parent="1" source="87Ft91bWCw8aiicAcbZZ-78" target="87Ft91bWCw8aiicAcbZZ-79">
          <mxGeometry width="50" height="50" relative="1" as="geometry">
            <mxPoint x="78" y="674" as="sourcePoint" />
            <mxPoint x="128" y="624" as="targetPoint" />
          </mxGeometry>
        </mxCell>
        <mxCell id="87Ft91bWCw8aiicAcbZZ-84" value="" style="endArrow=classic;html=1;rounded=0;exitX=0.75;exitY=0;exitDx=0;exitDy=0;entryX=0.75;entryY=1;entryDx=0;entryDy=0;" edge="1" parent="1" source="87Ft91bWCw8aiicAcbZZ-79" target="87Ft91bWCw8aiicAcbZZ-78">
          <mxGeometry width="50" height="50" relative="1" as="geometry">
            <mxPoint x="-92" y="754" as="sourcePoint" />
            <mxPoint x="-42" y="704" as="targetPoint" />
          </mxGeometry>
        </mxCell>
        <mxCell id="87Ft91bWCw8aiicAcbZZ-85" value="" style="endArrow=classic;html=1;rounded=0;exitX=1;exitY=0.5;exitDx=0;exitDy=0;entryX=0;entryY=0.5;entryDx=0;entryDy=0;" edge="1" parent="1" source="87Ft91bWCw8aiicAcbZZ-79" target="87Ft91bWCw8aiicAcbZZ-80">
          <mxGeometry width="50" height="50" relative="1" as="geometry">
            <mxPoint x="248" y="754" as="sourcePoint" />
            <mxPoint x="298" y="704" as="targetPoint" />
          </mxGeometry>
        </mxCell>
        <mxCell id="87Ft91bWCw8aiicAcbZZ-95" value="公式 Latex&amp;nbsp;" style="text;html=1;strokeColor=none;fillColor=none;align=center;verticalAlign=middle;whiteSpace=wrap;rounded=0;" vertex="1" parent="1">
          <mxGeometry x="141" y="658" width="60" height="30" as="geometry" />
        </mxCell>
        <mxCell id="87Ft91bWCw8aiicAcbZZ-96" value="公式 Latex&amp;nbsp;" style="text;html=1;strokeColor=none;fillColor=none;align=center;verticalAlign=middle;whiteSpace=wrap;rounded=0;" vertex="1" parent="1">
          <mxGeometry x="194" y="714" width="60" height="30" as="geometry" />
        </mxCell>
        <mxCell id="87Ft91bWCw8aiicAcbZZ-98" value="Latex 公式直接转 Dom 展示" style="text;html=1;strokeColor=none;fillColor=none;align=center;verticalAlign=middle;whiteSpace=wrap;rounded=0;" vertex="1" parent="1">
          <mxGeometry x="281.5" y="748" width="93" height="30" as="geometry" />
        </mxCell>
        <mxCell id="87Ft91bWCw8aiicAcbZZ-99" value="Latex 公式直接转 Dom 展示" style="text;html=1;strokeColor=none;fillColor=none;align=center;verticalAlign=middle;whiteSpace=wrap;rounded=0;" vertex="1" parent="1">
          <mxGeometry x="71.5" y="597" width="93" height="30" as="geometry" />
        </mxCell>
      </root>
    </mxGraphModel>
  </diagram>
</mxfile>
